<svg xmlns="http://www.w3.org/2000/svg" xmlns:xlink="http://www.w3.org/1999/xlink" width="500" zoomAndPan="magnify" viewBox="0 0 375 374.999991" height="500" preserveAspectRatio="xMidYMid meet" version="1.0"><defs><g/><clipPath id="b701e2f38e"><path d="M 18.078125 125.890625 L 141.078125 125.890625 L 141.078125 248.890625 L 18.078125 248.890625 Z M 18.078125 125.890625 " clip-rule="nonzero"/></clipPath><clipPath id="c52a0e1202"><path d="M 49.8125 157.066406 L 123.3125 157.066406 L 123.3125 202.816406 L 49.8125 202.816406 Z M 49.8125 157.066406 " clip-rule="nonzero"/></clipPath><clipPath id="6977aa9e54"><path d="M 77.90625 185.71875 L 81.617188 185.71875 L 81.617188 189.433594 L 77.90625 189.433594 Z M 77.90625 185.71875 " clip-rule="nonzero"/></clipPath><clipPath id="b203e128ed"><path d="M 79.761719 185.71875 C 78.734375 185.71875 77.90625 186.550781 77.90625 187.574219 C 77.90625 188.601562 78.734375 189.433594 79.761719 189.433594 C 80.785156 189.433594 81.617188 188.601562 81.617188 187.574219 C 81.617188 186.550781 80.785156 185.71875 79.761719 185.71875 Z M 79.761719 185.71875 " clip-rule="nonzero"/></clipPath><clipPath id="f3ec0a5b15"><path d="M 77.828125 185.71875 L 81.542969 185.71875 L 81.542969 189.433594 L 77.828125 189.433594 Z M 77.828125 185.71875 " clip-rule="nonzero"/></clipPath><clipPath id="4c46644df0"><path d="M 79.6875 185.71875 C 78.660156 185.71875 77.828125 186.550781 77.828125 187.574219 C 77.828125 188.601562 78.660156 189.433594 79.6875 189.433594 C 80.710938 189.433594 81.542969 188.601562 81.542969 187.574219 C 81.542969 186.550781 80.710938 185.71875 79.6875 185.71875 Z M 79.6875 185.71875 " clip-rule="nonzero"/></clipPath><clipPath id="0a94788e99"><path d="M 79.019531 184.457031 L 81.542969 184.457031 L 81.542969 186.980469 L 79.019531 186.980469 Z M 79.019531 184.457031 " clip-rule="nonzero"/></clipPath><clipPath id="464bb437f8"><path d="M 80.28125 184.457031 C 79.585938 184.457031 79.019531 185.023438 79.019531 185.71875 C 79.019531 186.414062 79.585938 186.980469 80.28125 186.980469 C 80.980469 186.980469 81.542969 186.414062 81.542969 185.71875 C 81.542969 185.023438 80.980469 184.457031 80.28125 184.457031 Z M 80.28125 184.457031 " clip-rule="nonzero"/></clipPath></defs><g clip-path="url(#b701e2f38e)"><path fill="#8c52ff" d="M 79.683594 249.101562 C 45.707031 249.101562 18.078125 221.441406 18.078125 187.496094 C 18.078125 153.519531 45.707031 125.890625 79.683594 125.890625 C 113.65625 125.890625 141.289062 153.519531 141.289062 187.496094 C 141.289062 221.441406 113.628906 249.101562 79.683594 249.101562 Z M 79.683594 126.121094 C 45.820312 126.121094 18.308594 153.636719 18.308594 187.496094 C 18.308594 221.355469 45.851562 248.871094 79.683594 248.871094 C 113.511719 248.871094 141.058594 221.328125 141.058594 187.496094 C 141.058594 153.664062 113.511719 126.121094 79.683594 126.121094 Z M 79.683594 126.121094 " fill-opacity="1" fill-rule="nonzero"/></g><path fill="#8c52ff" d="M 79.683594 241.660156 C 49.800781 241.660156 25.519531 217.347656 25.519531 187.496094 C 25.519531 157.644531 49.800781 133.300781 79.683594 133.300781 C 109.5625 133.300781 133.847656 157.617188 133.847656 187.464844 C 133.847656 217.316406 109.53125 241.660156 79.683594 241.660156 Z M 79.683594 133.621094 C 49.976562 133.621094 25.804688 157.789062 25.804688 187.496094 C 25.804688 217.203125 49.976562 241.371094 79.683594 241.371094 C 109.390625 241.371094 133.558594 217.203125 133.558594 187.496094 C 133.558594 157.789062 109.390625 133.621094 79.683594 133.621094 Z M 79.683594 133.621094 " fill-opacity="1" fill-rule="nonzero"/><path fill="#8c52ff" d="M 79.683594 234.363281 C 53.839844 234.363281 32.816406 213.335938 32.816406 187.496094 C 32.816406 161.652344 53.839844 140.628906 79.683594 140.628906 C 105.523438 140.628906 126.550781 161.652344 126.550781 187.496094 C 126.550781 213.335938 105.523438 234.363281 79.683594 234.363281 Z M 79.683594 141.234375 C 54.1875 141.234375 33.421875 162 33.421875 187.496094 C 33.421875 212.992188 54.1875 233.757812 79.683594 233.757812 C 105.179688 233.757812 125.945312 212.992188 125.945312 187.496094 C 125.945312 161.972656 105.179688 141.234375 79.683594 141.234375 Z M 79.683594 141.234375 " fill-opacity="1" fill-rule="nonzero"/><path fill="#8c52ff" d="M 79.683594 227.039062 C 57.878906 227.039062 40.140625 209.300781 40.140625 187.496094 C 40.140625 165.691406 57.878906 147.953125 79.683594 147.953125 C 101.488281 147.953125 119.222656 165.691406 119.222656 187.496094 C 119.222656 209.300781 101.488281 227.039062 79.683594 227.039062 Z M 79.683594 148.847656 C 58.367188 148.847656 41.035156 166.183594 41.035156 187.496094 C 41.035156 208.808594 58.367188 226.144531 79.683594 226.144531 C 100.996094 226.144531 118.328125 208.808594 118.328125 187.496094 C 118.328125 166.183594 100.996094 148.847656 79.683594 148.847656 Z M 79.683594 148.847656 " fill-opacity="1" fill-rule="nonzero"/><path fill="#8c52ff" d="M 79.683594 219.710938 C 61.914062 219.710938 47.4375 205.261719 47.4375 187.464844 C 47.4375 169.671875 61.914062 155.25 79.683594 155.25 C 97.449219 155.25 111.925781 169.699219 111.925781 187.496094 C 111.925781 205.289062 97.449219 219.710938 79.683594 219.710938 Z M 79.683594 156.460938 C 62.550781 156.460938 48.648438 170.363281 48.648438 187.496094 C 48.648438 204.597656 62.578125 218.527344 79.683594 218.527344 C 96.785156 218.527344 110.714844 204.597656 110.714844 187.496094 C 110.714844 170.363281 96.785156 156.460938 79.683594 156.460938 Z M 79.683594 156.460938 " fill-opacity="1" fill-rule="nonzero"/><path fill="#8c52ff" d="M 79.683594 212.414062 C 65.953125 212.414062 54.761719 201.222656 54.761719 187.496094 C 54.761719 173.765625 65.953125 162.578125 79.683594 162.578125 C 93.410156 162.578125 104.601562 173.765625 104.601562 187.496094 C 104.601562 201.222656 93.410156 212.414062 79.683594 212.414062 Z M 79.683594 164.078125 C 66.761719 164.078125 56.261719 174.574219 56.261719 187.496094 C 56.261719 200.417969 66.761719 210.914062 79.683594 210.914062 C 92.601562 210.914062 103.101562 200.417969 103.101562 187.496094 C 103.101562 174.574219 92.601562 164.078125 79.683594 164.078125 Z M 79.683594 164.078125 " fill-opacity="1" fill-rule="nonzero"/><path fill="#8c52ff" d="M 79.683594 205.089844 C 69.960938 205.089844 62.089844 197.1875 62.089844 187.496094 C 62.089844 177.804688 69.992188 169.902344 79.683594 169.902344 C 89.402344 169.902344 97.277344 177.804688 97.277344 187.496094 C 97.277344 197.1875 89.371094 205.089844 79.683594 205.089844 Z M 79.683594 171.660156 C 70.972656 171.660156 63.878906 178.757812 63.878906 187.464844 C 63.878906 196.175781 70.972656 203.273438 79.683594 203.273438 C 88.390625 203.273438 95.488281 196.175781 95.488281 187.464844 C 95.488281 178.757812 88.390625 171.660156 79.683594 171.660156 Z M 79.683594 171.660156 " fill-opacity="1" fill-rule="nonzero"/><path fill="#8c52ff" d="M 79.683594 197.792969 C 74 197.792969 69.386719 193.175781 69.386719 187.496094 C 69.386719 181.8125 74 177.199219 79.683594 177.199219 C 85.363281 177.199219 89.980469 181.8125 89.980469 187.496094 C 89.980469 193.175781 85.363281 197.792969 79.683594 197.792969 Z M 79.683594 179.277344 C 75.152344 179.277344 71.492188 182.96875 71.492188 187.464844 C 71.492188 191.996094 75.183594 195.65625 79.683594 195.65625 C 84.210938 195.65625 87.875 191.964844 87.875 187.464844 C 87.875 182.96875 84.210938 179.277344 79.683594 179.277344 Z M 79.683594 179.277344 " fill-opacity="1" fill-rule="nonzero"/><path fill="#8c52ff" d="M 79.683594 189.285156 C 78.703125 189.285156 77.894531 188.476562 77.894531 187.496094 C 77.894531 186.515625 78.703125 185.707031 79.683594 185.707031 C 80.664062 185.707031 81.46875 186.515625 81.46875 187.496094 C 81.46875 188.476562 80.664062 189.285156 79.683594 189.285156 Z M 79.683594 189.285156 " fill-opacity="1" fill-rule="nonzero"/><g clip-path="url(#c52a0e1202)"><path fill="#8c52ff" d="M 123.511719 157.09375 L 114.652344 160.65625 L 116.878906 162.398438 L 101.203125 182.386719 L 101.0625 171.191406 L 101.007812 166.859375 L 98.515625 170.359375 L 83.679688 191.234375 L 83.519531 178.246094 L 83.484375 175.710938 L 82 177.738281 L 68.078125 196.722656 L 67.96875 188.0625 L 67.953125 186.96875 L 67.261719 187.800781 L 57.058594 199.988281 L 57 195.117188 L 56.996094 194.789062 L 56.773438 195.03125 L 49.8125 202.726562 L 56.734375 195.449219 L 56.671875 200.523438 L 56.667969 201.050781 L 57.019531 200.652344 L 67.148438 189.144531 L 67.035156 198.316406 L 67.015625 199.898438 L 67.988281 198.636719 L 81.796875 180.765625 L 81.625 194.457031 L 81.585938 197.65625 L 83.519531 195.074219 L 98.191406 175.488281 L 98.050781 186.960938 L 97.992188 191.492188 L 100.90625 187.964844 L 119.992188 164.84375 L 122.164062 166.546875 Z M 123.511719 157.09375 " fill-opacity="1" fill-rule="nonzero"/></g><g fill="#000000" fill-opacity="1"><g transform="translate(148.454088, 181.017456)"><g><path d="M 25.578125 -44.0625 L 43.359375 0 L 32.578125 0 L 29.3125 -8.8125 L 12.546875 -8.8125 L 9.296875 0 L -1.5 0 L 16.28125 -44.0625 Z M 25.90625 -17.625 L 20.984375 -30.4375 L 20.875 -30.4375 L 15.96875 -17.625 Z M 25.90625 -17.625 "/></g></g></g><g fill="#000000" fill-opacity="1"><g transform="translate(187.653549, 181.017456)"><g><path d="M 3.203125 0 L 3.203125 -45.921875 L 12.65625 -45.921875 L 12.65625 0 Z M 3.203125 0 "/></g></g></g><g fill="#000000" fill-opacity="1"><g transform="translate(200.84465, 181.017456)"><g><path d="M 1.96875 6.734375 L 9.71875 2.9375 C 11.144531 5.289062 13.617188 6.46875 17.140625 6.46875 C 18.773438 6.46875 20.296875 5.941406 21.703125 4.890625 C 23.109375 3.835938 23.8125 2.222656 23.8125 0.046875 L 23.8125 -1.96875 C 22.144531 -0.125 19.15625 0.796875 14.84375 0.796875 C 10.894531 0.796875 7.640625 -0.597656 5.078125 -3.390625 C 2.515625 -6.179688 1.234375 -9.609375 1.234375 -13.671875 C 1.234375 -17.734375 2.515625 -21.171875 5.078125 -23.984375 C 7.640625 -26.796875 10.894531 -28.203125 14.84375 -28.203125 C 18.375 -28.203125 21.3125 -27.113281 23.65625 -24.9375 L 23.8125 -24.9375 L 23.8125 -27.390625 L 33.265625 -27.390625 L 33.265625 0.75 C 33.265625 5.195312 31.785156 8.628906 28.828125 11.046875 C 25.878906 13.472656 21.984375 14.6875 17.140625 14.6875 C 9.304688 14.6875 4.25 12.035156 1.96875 6.734375 Z M 13.109375 -18.3125 C 11.878906 -17.101562 11.265625 -15.554688 11.265625 -13.671875 C 11.265625 -11.785156 11.851562 -10.242188 13.03125 -9.046875 C 14.207031 -7.859375 15.753906 -7.265625 17.671875 -7.265625 C 19.523438 -7.265625 21.046875 -7.867188 22.234375 -9.078125 C 23.429688 -10.285156 24.03125 -11.816406 24.03125 -13.671875 C 24.03125 -15.554688 23.414062 -17.101562 22.1875 -18.3125 C 20.957031 -19.53125 19.453125 -20.140625 17.671875 -20.140625 C 15.859375 -20.140625 14.335938 -19.53125 13.109375 -18.3125 Z M 13.109375 -18.3125 "/></g></g></g><g fill="#000000" fill-opacity="1"><g transform="translate(234.650178, 181.017456)"><g><path d="M 5.796875 -3.25 C 2.753906 -5.957031 1.234375 -9.429688 1.234375 -13.671875 C 1.234375 -17.910156 2.816406 -21.390625 5.984375 -24.109375 C 9.148438 -26.835938 13.066406 -28.203125 17.734375 -28.203125 C 22.328125 -28.203125 26.195312 -26.828125 29.34375 -24.078125 C 32.5 -21.335938 34.078125 -17.867188 34.078125 -13.671875 C 34.078125 -9.472656 32.535156 -6.007812 29.453125 -3.28125 C 26.367188 -0.5625 22.460938 0.796875 17.734375 0.796875 C 12.816406 0.796875 8.835938 -0.550781 5.796875 -3.25 Z M 13.109375 -18.3125 C 11.878906 -17.101562 11.265625 -15.554688 11.265625 -13.671875 C 11.265625 -11.785156 11.851562 -10.242188 13.03125 -9.046875 C 14.207031 -7.859375 15.753906 -7.265625 17.671875 -7.265625 C 19.523438 -7.265625 21.046875 -7.867188 22.234375 -9.078125 C 23.429688 -10.285156 24.03125 -11.816406 24.03125 -13.671875 C 24.03125 -15.554688 23.414062 -17.101562 22.1875 -18.3125 C 20.957031 -19.53125 19.453125 -20.140625 17.671875 -20.140625 C 15.859375 -20.140625 14.335938 -19.53125 13.109375 -18.3125 Z M 13.109375 -18.3125 "/></g></g></g><g fill="#000000" fill-opacity="1"><g transform="translate(148.454088, 231.752412)"><g><path d="M 0.421875 -35.25 L 0.421875 -44.0625 L 31.40625 -44.0625 L 31.40625 -35.25 L 20.9375 -35.25 L 20.9375 0 L 10.890625 0 L 10.890625 -35.25 Z M 0.421875 -35.25 "/></g></g></g><g fill="#000000" fill-opacity="1"><g transform="translate(177.61336, 231.752412)"><g><path d="M 3.203125 -44.0625 L 18.953125 -44.0625 C 23.191406 -44.0625 26.644531 -42.929688 29.3125 -40.671875 C 31.988281 -38.410156 33.328125 -35.175781 33.328125 -30.96875 C 33.328125 -27.726562 32.515625 -25.015625 30.890625 -22.828125 C 29.273438 -20.640625 27.078125 -19.101562 24.296875 -18.21875 L 39.46875 0 L 26.703125 0 L 13.25 -17.40625 L 13.25 0 L 3.203125 0 Z M 13.25 -24.515625 L 14.421875 -24.515625 C 15.347656 -24.515625 16.128906 -24.53125 16.765625 -24.5625 C 17.410156 -24.601562 18.140625 -24.726562 18.953125 -24.9375 C 19.773438 -25.15625 20.4375 -25.457031 20.9375 -25.84375 C 21.4375 -26.238281 21.863281 -26.804688 22.21875 -27.546875 C 22.570312 -28.296875 22.75 -29.207031 22.75 -30.28125 C 22.75 -31.351562 22.570312 -32.257812 22.21875 -33 C 21.863281 -33.75 21.4375 -34.316406 20.9375 -34.703125 C 20.4375 -35.097656 19.773438 -35.398438 18.953125 -35.609375 C 18.140625 -35.828125 17.410156 -35.953125 16.765625 -35.984375 C 16.128906 -36.023438 15.347656 -36.046875 14.421875 -36.046875 L 13.25 -36.046875 Z M 13.25 -24.515625 "/></g></g></g><g fill="#000000" fill-opacity="1"><g transform="translate(213.181265, 231.752412)"><g><path d="M 25.578125 -44.0625 L 43.359375 0 L 32.578125 0 L 29.3125 -8.8125 L 12.546875 -8.8125 L 9.296875 0 L -1.5 0 L 16.28125 -44.0625 Z M 25.90625 -17.625 L 20.984375 -30.4375 L 20.875 -30.4375 L 15.96875 -17.625 Z M 25.90625 -17.625 "/></g></g></g><g fill="#000000" fill-opacity="1"><g transform="translate(252.380732, 231.752412)"><g><path d="M 3.203125 -44.0625 L 15.96875 -44.0625 C 22.09375 -44.0625 27.328125 -41.96875 31.671875 -37.78125 C 36.015625 -33.601562 38.1875 -28.363281 38.1875 -22.0625 C 38.1875 -15.71875 36.019531 -10.453125 31.6875 -6.265625 C 27.363281 -2.085938 22.125 0 15.96875 0 L 3.203125 0 Z M 13.25 -8.96875 L 14.796875 -8.96875 C 18.460938 -8.96875 21.460938 -10.203125 23.796875 -12.671875 C 26.128906 -15.148438 27.3125 -18.257812 27.34375 -22 C 27.34375 -25.738281 26.175781 -28.851562 23.84375 -31.34375 C 21.507812 -33.84375 18.492188 -35.09375 14.796875 -35.09375 L 13.25 -35.09375 Z M 13.25 -8.96875 "/></g></g></g><g fill="#000000" fill-opacity="1"><g transform="translate(289.123547, 231.752412)"><g><path d="M 25.578125 -44.0625 L 43.359375 0 L 32.578125 0 L 29.3125 -8.8125 L 12.546875 -8.8125 L 9.296875 0 L -1.5 0 L 16.28125 -44.0625 Z M 25.90625 -17.625 L 20.984375 -30.4375 L 20.875 -30.4375 L 15.96875 -17.625 Z M 25.90625 -17.625 "/></g></g></g><g fill="#000000" fill-opacity="1"><g transform="translate(328.323002, 231.752412)"><g><path d="M 3.203125 -44.0625 L 18.953125 -44.0625 C 23.191406 -44.0625 26.644531 -42.929688 29.3125 -40.671875 C 31.988281 -38.410156 33.328125 -35.175781 33.328125 -30.96875 C 33.328125 -27.726562 32.515625 -25.015625 30.890625 -22.828125 C 29.273438 -20.640625 27.078125 -19.101562 24.296875 -18.21875 L 39.46875 0 L 26.703125 0 L 13.25 -17.40625 L 13.25 0 L 3.203125 0 Z M 13.25 -24.515625 L 14.421875 -24.515625 C 15.347656 -24.515625 16.128906 -24.53125 16.765625 -24.5625 C 17.410156 -24.601562 18.140625 -24.726562 18.953125 -24.9375 C 19.773438 -25.15625 20.4375 -25.457031 20.9375 -25.84375 C 21.4375 -26.238281 21.863281 -26.804688 22.21875 -27.546875 C 22.570312 -28.296875 22.75 -29.207031 22.75 -30.28125 C 22.75 -31.351562 22.570312 -32.257812 22.21875 -33 C 21.863281 -33.75 21.4375 -34.316406 20.9375 -34.703125 C 20.4375 -35.097656 19.773438 -35.398438 18.953125 -35.609375 C 18.140625 -35.828125 17.410156 -35.953125 16.765625 -35.984375 C 16.128906 -36.023438 15.347656 -36.046875 14.421875 -36.046875 L 13.25 -36.046875 Z M 13.25 -24.515625 "/></g></g></g><g clip-path="url(#6977aa9e54)"><g clip-path="url(#b203e128ed)"><path fill="#ffffff" d="M 77.90625 185.71875 L 81.617188 185.71875 L 81.617188 189.433594 L 77.90625 189.433594 Z M 77.90625 185.71875 " fill-opacity="1" fill-rule="nonzero"/></g></g><g clip-path="url(#f3ec0a5b15)"><g clip-path="url(#4c46644df0)"><path fill="#ffffff" d="M 77.828125 185.71875 L 81.542969 185.71875 L 81.542969 189.433594 L 77.828125 189.433594 Z M 77.828125 185.71875 " fill-opacity="1" fill-rule="nonzero"/></g></g><g clip-path="url(#0a94788e99)"><g clip-path="url(#464bb437f8)"><path fill="#ffffff" d="M 79.019531 184.457031 L 81.542969 184.457031 L 81.542969 186.980469 L 79.019531 186.980469 Z M 79.019531 184.457031 " fill-opacity="1" fill-rule="nonzero"/></g></g></svg>